<?xml version="1.0" encoding="UTF-8"?>
<!-- Created with Inkscape (http://www.inkscape.org/) -->
<svg width="126.45mm" height="195.45mm" version="1.1" viewBox="0 0 126.45 195.45" xmlns="http://www.w3.org/2000/svg">
 <g transform="translate(-52.278 -96.41)">
  <g>
   <path d="m167.72 217.66s15.029-35.18-3.074-49.526c-25.727-18.038-61.083-37.334-42.695-71.727 0 0-27.034 34.989-25.104 58.406 3.8706 34.801 63.984 34.05 70.873 62.846z" fill="#a78bfa"/>
   <path d="m94.289 125.44c-40.93 75.824 56.629 68.568 72.41 117.67 5.4022-5.252 5.9666-12.151 5.9772-20.323 0 0 16.114 18.992-4.2316 44.984-29.888 32.522-74.559 32.675-107.12-2.9725-12.906-11.529-0.92834-38.563-9.0513-49.184 6.0511 4.6756 44.619 37.046 61.993 43.207 1.7078 0.34145 5.9772 1.3662 8.1974-2.2201 2.2201-3.5864 5.1234-8.7097-0.51233-12.467-28.387-16.425-73.248-38.427-64.384-71.215 6.5239-18.032 29.886-41.158 36.717-47.476z" fill="#7c3aed"/>
  </g>
 </g>
</svg>
