<?xml version="1.0" encoding="UTF-8"?>
<svg width="40" height="40" version="1.1" viewBox="0 0 40 40" xmlns="http://www.w3.org/2000/svg">
 <path d="m37 20c0 9.4-7.6 17-17 17s-17-7.6-17-17 7.6-17 17-17 17 7.6 17 17z" fill="#fff"/>
 <g fill="#455a64">
  <path d="m17 37v-5.5c0-0.3 0.2-0.5 0.5-0.5s0.5 0.2 0.5 0.5v5.5h2v-6.5c0-0.3 0.2-0.5 0.5-0.5s0.5 0.2 0.5 0.5v6.5h2v-5.5c0-0.3 0.2-0.5 0.5-0.5s0.5 0.2 0.5 0.5v5.5h1.8c0.2-0.3 0.2-0.6 0.2-1.1v-3.9c0-2.2-1.9-5.2-4.3-5.2h-2.5c-2.3 0-4.3 3.1-4.3 5.2v3.9c0 0.4 0.1 0.8 0.2 1.1zm19.1-14.6s-1.3-0.4-2.4-0.4h-0.1c-1.1 0-2.9 0.3-2.9 0.3-0.1 0-0.1 0-0.1-0.1s0-0.1 0.1-0.1 2-0.3 3.1-0.3 2.4 0.4 2.5 0.4 0.1 0.1 0.1 0.2c-0.2-0.1-0.2 0-0.3 0zm-0.3 0.8s-1.4-0.4-2.6-0.4c-0.9 0-3 0.2-3.1 0.2s-0.1 0-0.1-0.1 0-0.1 0.1-0.1 2.2-0.2 3.1-0.2c1.3 0 2.6 0.4 2.6 0.4 0.1 0 0.1 0.1 0.1 0.2 0-0.1 0 0-0.1 0zm-32-0.8c-0.1 0-0.1 0-0.1-0.1s0-0.1 0.1-0.2c0.8-0.2 2.4-0.5 3.3-0.5 0.8 0 3.5 0.2 3.6 0.2s0.1 0.1 0.1 0.1c0 0.1-0.1 0.1-0.1 0.1s-2.7-0.2-3.5-0.2c-1.1 0.2-2.6 0.4-3.4 0.6zm0.4 1.5s-0.1 0-0.1-0.1v-0.2c0.1 0 1.4-0.8 2.9-1 1.3-0.2 4 0.1 4.2 0.1 0.1 0 0.1 0.1 0.1 0.1 0 0.1-0.1 0.1-0.1 0.1s-2.8-0.3-4.1-0.1c-1.5 0.3-2.9 1.1-2.9 1.1z"/>
  <path d="m10.2 19.5c0-4.4 4.6-8.5 10.3-8.5s10.3 4 10.3 8.5-3.3 7.5-10.3 7.5-10.3-3.1-10.3-7.5z"/>
  <path d="m24.6 12.3s1.7-2.3 4.8-2.3c1.2 1.2 0.4 4.8 0 5.8zm-8.2 0s-1.7-2.3-4.8-2.3c-1.2 1.2-0.4 4.8 0 5.8zm-0.3 19.6h-2.8c-1.2 0-2.3-0.5-2.8-1.5-0.6-1.1-1.1-2.3-2.6-3.3-0.3-0.2-0.1-0.4 0.4-0.4 0.5 0.1 1.4 0.2 2.1 1.1s1.5 2 2.8 2 2.7 0 3.5-0.9z"/>
 </g>
 <path d="m20 0c-11 0-20 9-20 20s9 20 20 20 20-9 20-20-9-20-20-20zm0 36c-8.8 0-16-7.2-16-16s7.2-16 16-16 16 7.2 16 16-7.2 16-16 16z" fill="#00bcd4"/>
</svg>
