<?xml version="1.0" encoding="UTF-8"?>
<svg width="40" height="40" version="1.1" viewBox="0 0 40 40" xmlns="http://www.w3.org/2000/svg">
 <path d="m20 0a20 20 0 1 0 0 40 20 20 0 1 0 0-40z" fill="#0288d1"/>
 <path d="m10 15h4v15h-4zm1.988-2h-0.022c-1.194 0-1.966-0.89-1.966-2.001 0-1.135 0.796-1.999 2.011-1.999 1.217 0 1.966 0.864 1.989 1.999 0 1.111-0.772 2.001-2.012 2.001zm19.012 7.5c0-3.038-2.462-5.5-5.5-5.5-1.862 0-3.505 0.928-4.5 2.344v-2.344h-4v15h4v-8c0-1.657 1.343-3 3-3s3 1.343 3 3v8h4v-9.5z" fill="#fff"/>
</svg>
