<?xml version="1.0" encoding="UTF-8"?>
<svg width="492.2pt" height="418.85pt" version="1.1" viewBox="0 0 492.2 418.85" xmlns="http://www.w3.org/2000/svg">
 <path d="m339.33 31.978c14.895 10.965 28.102 23.949 39.27 38.508 25.527 33.27 40.379 74.707 40.379 118.87 0 53.945-21.867 102.79-57.223 138.14-6.75 6.75-13.988 13.008-21.664 18.715-32.523 24.191-72.832 38.508-116.48 38.508h-204.36c-10.633 0-19.254-8.6211-19.254-19.254 0-10.633 8.6211-19.254 19.254-19.254h204.35c43.316 0 82.535-17.559 110.92-45.941 28.383-28.383 45.941-67.602 45.941-110.92 0-35.547-11.918-68.852-32.406-95.555-9.8945-12.895-22.301-24.582-35.836-33.918l-25.777 26.543-10.422-84.074 84.344 7.9609-21.043 21.668z" fill="#576cdb"/>
 <g fill="#feb918">
  <path d="m66.762 189.35c0-35.547 11.918-68.852 32.406-95.555 20.469-26.676 49.531-46.789 83.836-55.98 10.258-2.7422 16.355-13.281 13.613-23.543-2.7422-10.262-13.281-16.355-23.543-13.613-42.688 11.438-78.895 36.527-104.44 69.82-25.527 33.27-40.379 74.707-40.379 118.87 0 53.949 21.867 102.79 57.223 138.14 3.4219 3.4219 6.832 6.6367 10.363 9.7227h75.305c-22.207-7.8828-42.117-20.621-58.441-36.949-28.387-28.383-45.941-67.602-45.941-110.92z" fill-rule="evenodd"/>
  <path d="m426.43 384.94-142.91-0.16016c22.121-6.7695 43.059-17.309 61.945-31.359 3.1172-2.3203 6.168-4.7266 9.1484-7.2188h71.254l-0.48828-33.445 66.82 52.082-65.27 54.012-0.49609-33.914z" fill-rule="evenodd"/>
  <path d="m158.52 221.02h-16.322l-4.7296-14.792h-23.648l-4.6833 14.792h-16.229l24.205-66.493h17.759zm-24.483-26.291-7.1408-22.35q-0.78827-2.5039-1.1128-5.9816h-0.37096q-0.23184 2.9212-1.1592 5.7961l-7.2336 22.535z" stroke-width="2.3741"/>
  <path d="m220.47 216.57q-9.7375 5.6106-24.205 5.6106-16.044 0-25.317-8.8565-9.2274-8.9028-9.2274-24.483 0-15.673 10.108-25.549 10.108-9.8766 26.894-9.8766 10.572 0 18.64 2.9212v14.05q-7.6972-4.4514-18.826-4.4514-9.3201 0-15.209 6.0743-5.8425 6.028-5.8425 16.136 0 10.248 5.2397 15.858 5.2861 5.6106 14.235 5.6106 5.3788 0 8.5319-1.5302v-12.983h-13.308v-11.963h28.285z" stroke-width="2.3741"/>
 </g>
 <g fill="#576cdb" stroke-width="2.3741">
  <path d="m248.39 221.02h-14.977v-66.493h14.977z"/>
  <path d="m303.1 221.02h-39.599v-66.493h14.977v54.344h24.622z"/>
  <path d="m351.93 221.02h-39.877v-66.493h38.347v12.195h-23.37v14.792h21.747v12.149h-21.747v15.209h24.9z"/>
 </g>
</svg>
