<?xml version="1.0" encoding="UTF-8"?>
<!-- Created with Inkscape (http://www.inkscape.org/) -->
<svg width="21.65mm" height="20.208mm" version="1.1" viewBox="0 0 21.65 20.208" xmlns="http://www.w3.org/2000/svg">
 <g transform="translate(-257.93 -29.332)" stroke-width=".28524">
  <path d="m257.93 29.332h21.65v20.208h-21.65v-20.208z" fill="#112b46"/>
  <path d="m257.93 29.332h21.65v2.137h-21.65v-2.137z" fill="#1d262d"/>
  <path d="m274.9 30.425c0 0.21621-0.17513 0.39192-0.39135 0.39192h-2.6e-4c-0.21621 0-0.39163-0.17542-0.39163-0.39163v-2.64e-4c0-0.2165 0.17513-0.39192 0.39163-0.39192 0.21621 0 0.39163 0.17571 0.39163 0.39192z" fill="#f3b702"/>
  <path d="m276.53 30.425c0 0.2165-0.17571 0.39192-0.39221 0.39192-0.21621 0-0.39163-0.17571-0.39163-0.39192 0-0.21621 0.1757-0.39192 0.39192-0.39192 0.21649 0 0.39192 0.17542 0.39192 0.39192z" fill="#a325b4"/>
  <path d="m278.05 30.466c0 0.2165-0.17542 0.39192-0.39192 0.39192s-0.39192-0.17542-0.39192-0.39192 0.17542-0.39192 0.39192-0.39192 0.39192 0.17542 0.39192 0.39192z" fill="#f00"/>
  <path d="m265.37 33.456h3.0663v0.25786h-3.0663v-0.25786z" fill="#fbd15b"/>
  <path d="m262.72 34.844h4.7549v0.25786h-4.7549v-0.25786z" fill="#606bf1"/>
  <path d="m268.27 34.844h2.4171v0.25786h-2.4171v-0.25786z" fill="#ff8578"/>
  <path d="m264.37 36.232h2.0885v0.25786h-2.0885v-0.25786z" fill="#fbd15b"/>
  <path d="m267.67 36.232h6.9279v0.25786h-6.9279v-0.25786z" fill="#fbd15b"/>
  <path d="m266 37.621h7.9177v0.25786h-7.9177v-0.25786z" fill="#606bf1"/>
  <path d="m264.02 39.009h2.4371v0.25786h-2.4371v-0.25786z" fill="#ff8578"/>
  <path d="m267.5 39.009h2.4371v0.25786h-2.4371v-0.25786z" fill="#606bf1"/>
  <path d="m266.56 46.212h3.545v0.25786h-3.545v-0.25786z" fill="#fbd15b"/>
  <path d="m271.22 46.212h3.545v0.25786h-3.545v-0.25786z" fill="#ff8578"/>
  <path d="m262.72 44.824h6.9279v0.25786h-6.9279v-0.25786z" fill="#606bf1"/>
  <path d="m270.73 44.824h6.9279v0.25786h-6.9279v-0.25786z" fill="#ff8578"/>
  <path d="m264.37 43.435h6.8748v0.25786h-6.8748v-0.25786z" fill="#ff8578"/>
  <path d="m271.85 43.435h1.9134v0.25786h-1.9134v-0.25786z" fill="#fbd15b"/>
  <path d="m263.92 42.047h2.5883v0.25786h-2.5883v-0.25786z" fill="#fbd15b"/>
  <path d="m267.89 42.047h2.5883v0.25786h-2.5883v-0.25786z" fill="#606bf1"/>
  <path d="m272.14 42.047h2.5883v0.25786h-2.5883v-0.25786z" fill="#ff8578"/>
  <path d="m266.92 40.659h3.6288v0.25786h-3.6288v-0.25786z" fill="#fbd15b"/>
 </g>
</svg>
